# xmcd CD Database Entry
#
# Track frame offsets:
# 150
# 11540
# 26332
# 37982
# 49455
# 64937
# 79505
# 99960
# 116590
# 132127
# 140317
# 153650
# 171027
# 181705
# 197702
# 210720
# 225437
#
# Disc length: 3184 seconds
#
# Revision: 1
# Processed by: cddbd v1.5.1PL0 Copyright (c) Steve Scherf et al.
# Submitted via: tcd 2.0b
#
DISCID=d40c6e11
DTITLE=Tuntematon - Tuntematon
DYEAR=1900
DGENRE=
TTITLE0=Ura 1
TTITLE1=Ura 2
TTITLE2=Ura 3
TTITLE3=Ura 4
TTITLE4=Ura 5
TTITLE5=Ura 6
TTITLE6=Ura 7
TTITLE7=Ura 8
TTITLE8=Ura 9
TTITLE9=Ura 10
TTITLE10=Ura 11
TTITLE11=Ura 12
TTITLE12=Ura 13
TTITLE13=Ura 14
TTITLE14=Ura 15
TTITLE15=Ura 16
TTITLE16=Ura 17
EXTD=
EXTT0=
EXTT1=
EXTT2=
EXTT3=
EXTT4=
EXTT5=
EXTT6=
EXTT7=
EXTT8=
EXTT9=
EXTT10=
EXTT11=
EXTT12=
EXTT13=
EXTT14=
EXTT15=
EXTT16=
PLAYORDER=
